Land_normalized_Motion_pl02
version=1
nRows=10
nColumns=43
inDegrees=yes
endheader
time		pelvis_tilt		pelvis_list		pelvis_rotation		pelvis_tx		pelvis_ty		pelvis_tz		hip_flexion_r		hip_adduction_r		hip_rotation_r		knee_angle_r		ankle_angle_r		subtalar_angle_r		mtp_angle_r		hip_flexion_l		hip_adduction_l		hip_rotation_l		knee_angle_l		ankle_angle_l		subtalar_angle_l		mtp_angle_l		lumbar_extension		lumbar_bending		lumbar_rotation		neck_flexion		neck_lateral_bending		neck_rotation		arm_flex_r		arm_add_r		arm_rot_r		elbow_flex_r		pro_sup_r		wrist_flex_r		wrist_dev_r		hand_finger_flex_r		arm_flex_l		arm_add_l		arm_rot_l		elbow_flex_l		pro_sup_l		wrist_flex_l		wrist_dev_l		hand_finger_flex_l		
3.635000		3.650468		-0.996226		97.607319		-0.067040		0.949153		0.560599		29.830861		-5.052069		-10.804603		-27.470271		-18.929267		7.083195		27.444043		31.704758		-4.171502		-4.569473		-27.604333		-18.951169		0.624809		18.163999		-25.457161		10.015764		0.505025		-28.042547		-1.186185		-6.597987		-49.593545		-4.240666		-32.742308		60.014753		109.175757		-15.756228		-4.521983		-46.532920		-78.330883		-21.491812		-41.667321		105.884947		129.490769		7.907617		-9.704010		-7.643844		
3.637980		3.640741		-0.825585		97.541188		-0.067378		0.938003		0.556582		30.339019		-5.178365		-10.832856		-28.872907		-18.865675		7.397375		27.421101		32.260551		-4.204351		-4.423050		-29.037738		-18.919479		0.816387		18.471377		-25.793843		10.031639		0.595124		-27.565845		-1.131921		-6.534915		-48.357623		-4.685609		-32.312101		60.043436		109.172917		-15.803694		-4.824195		-46.705667		-76.836323		-21.885268		-41.166655		105.883177		129.623722		7.281940		-10.092068		-8.146969		
3.640960		3.745797		-0.819461		97.500780		-0.067689		0.926166		0.552761		31.143980		-5.212107		-10.867593		-30.405335		-18.751730		8.003623		27.381047		33.013404		-4.321968		-4.261956		-30.402857		-18.946118		1.118335		18.989965		-25.965151		10.130462		0.727138		-26.751333		-1.061919		-6.496654		-47.185067		-5.172777		-31.808504		60.077517		109.219603		-15.977331		-5.356432		-47.041447		-75.453877		-22.302734		-40.618749		105.903626		129.885737		6.215418		-10.798603		-9.022720		
3.643939		3.757202		-0.696427		97.446830		-0.067892		0.914677		0.548732		31.762008		-5.307775		-10.866083		-31.822334		-18.719012		8.452376		27.351481		33.616534		-4.381590		-4.155348		-31.745254		-19.250830		1.341379		19.370863		-26.217367		10.132529		0.801056		-26.417721		-1.005111		-6.464034		-45.959885		-5.661703		-31.289739		60.185755		109.440421		-15.899708		-5.720051		-47.197771		-73.916441		-22.662252		-40.172587		105.943473		130.125634		5.580579		-11.227289		-9.607621		
3.646919		3.751720		-0.512173		97.417560		-0.068170		0.903178		0.544709		32.310372		-5.413654		-10.790460		-33.226226		-18.672166		8.822684		27.327392		34.158378		-4.408580		-4.045399		-33.090927		-19.468816		1.523842		19.693120		-26.514807		10.130214		0.831202		-26.192841		-0.944672		-6.431712		-44.697428		-6.138267		-30.830231		60.340446		109.657376		-15.802925		-6.024091		-47.309290		-72.337331		-22.987170		-39.775476		106.031304		130.313221		5.072883		-11.567208		-10.077856		
3.649899		3.722124		-0.467194		97.255050		-0.068455		0.891338		0.540962		33.144629		-5.527376		-10.591434		-34.786504		-17.957496		9.558157		27.292059		34.902925		-4.404040		-3.794089		-34.580022		-19.382754		1.895645		20.244130		-26.775919		10.057247		0.929229		-25.407209		-0.875584		-6.428617		-43.401578		-6.740140		-30.238535		60.501533		110.187336		-15.644091		-6.441038		-47.464219		-70.833900		-23.430658		-39.206430		106.112553		130.572102		4.488628		-12.041749		-10.651450		
3.652879		3.681038		-0.267940		97.242491		-0.068494		0.879805		0.537074		33.658404		-5.635345		-10.373422		-36.271103		-17.476026		9.868873		27.274174		35.472889		-4.410610		-3.700001		-36.096545		-18.950781		2.199075		20.650228		-27.097689		9.992396		0.953830		-25.356062		-0.823037		-6.403260		-42.048149		-7.126393		-29.858535		60.729781		110.544072		-15.508544		-6.664668		-47.536871		-69.097728		-23.724011		-38.979049		106.261442		130.654429		4.148037		-12.264764		-10.930472		
3.655859		3.717807		-0.557006		96.882134		-0.068372		0.867074		0.533490		35.014163		-5.607809		-9.913051		-38.252030		-15.501388		10.871747		27.215809		36.700153		-4.559552		-3.480728		-38.097053		-16.976042		3.390182		22.137278		-27.012174		9.847627		1.206647		-24.553604		-0.744404		-6.453768		-40.711282		-7.652269		-29.461087		60.872140		111.699035		-15.381328		-7.165825		-47.943311		-67.609823		-24.144565		-38.403690		106.254728		130.958398		3.393518		-13.002890		-11.601801		
3.658838		3.594627		-0.412255		96.806098		-0.068408		0.855359		0.529977		35.743250		-5.776413		-9.429720		-40.274906		-13.144987		11.040781		27.206571		37.361812		-4.410102		-3.049231		-40.024514		-14.589406		3.943570		22.935877		-27.385967		9.678196		1.237920		-24.042284		-0.730234		-6.469900		-39.300357		-8.168435		-28.868278		61.106506		112.250170		-15.166820		-7.390628		-48.060341		-65.863136		-24.650629		-38.046352		106.406032		130.957071		3.232549		-13.210286		-11.697898		
3.661818		3.679769		-0.501394		96.372372		-0.067832		0.842872		0.526373		36.801980		-5.555529		-8.883180		-42.566095		-10.620431		11.579218		27.224247		38.460474		-4.754299		-2.905108		-42.589281		-10.737450		5.569176		24.183663		-27.532050		9.520070		1.626098		-23.410091		-0.644876		-6.555974		-37.914711		-8.621678		-28.457026		61.393617		113.102175		-15.155287		-7.679758		-48.414652		-64.203204		-25.011323		-37.699985		106.559233		130.792544		2.972037		-13.528488		-11.699639		
